<svg xmlns="http://www.w3.org/2000/svg" width="41.267" height="36.825" viewBox="0 0 41.267 36.825"><defs><style>.a{fill:#3d4ff4;}.b{fill:#fff;}</style></defs><g transform="translate(-85.982 -223.797)"><path class="a" d="M37.073,3.506A10.828,10.828,0,0,0,29.019,0a10.13,10.13,0,0,0-6.327,2.184,12.944,12.944,0,0,0-2.558,2.671,12.937,12.937,0,0,0-2.558-2.671A10.128,10.128,0,0,0,11.249,0,10.828,10.828,0,0,0,3.195,3.506,12.587,12.587,0,0,0,0,12.1c0,3.405,1.269,6.523,3.994,9.81a85.161,85.161,0,0,0,10,9.383c1.385,1.181,2.955,2.519,4.586,3.944a2.364,2.364,0,0,0,3.113,0c1.63-1.426,3.2-2.765,4.587-3.946a85.113,85.113,0,0,0,10-9.383c2.725-3.287,3.993-6.4,3.993-9.81a12.585,12.585,0,0,0-3.194-8.6Zm0,0" transform="translate(86.482 224.297)"/><path class="b" d="M20.134,36.325a2.861,2.861,0,0,1-1.886-.709c-1.628-1.423-3.2-2.76-4.581-3.94C9.593,28.2,6.075,25.206,3.609,22.231.806,18.848-.5,15.63-.5,12.1A13.085,13.085,0,0,1,2.827,3.167,11.323,11.323,0,0,1,11.249-.5a10.617,10.617,0,0,1,6.633,2.288,13.212,13.212,0,0,1,2.252,2.239,13.221,13.221,0,0,1,2.252-2.239A10.619,10.619,0,0,1,29.019-.5,11.323,11.323,0,0,1,37.44,3.167,13.083,13.083,0,0,1,40.767,12.1c0,3.529-1.306,6.748-4.108,10.13C34.194,25.205,30.676,28.2,26.6,31.675l-.036.031c-1.375,1.172-2.933,2.5-4.547,3.911A2.86,2.86,0,0,1,20.134,36.325ZM11.249.5A10.334,10.334,0,0,0,3.562,3.845,12.089,12.089,0,0,0,.5,12.1c0,3.282,1.232,6.3,3.879,9.491a84.862,84.862,0,0,0,9.937,9.322c1.386,1.181,2.957,2.521,4.591,3.948a1.864,1.864,0,0,0,2.454,0c1.619-1.416,3.18-2.746,4.557-3.92l.035-.03a84.819,84.819,0,0,0,9.936-9.321c2.646-3.193,3.878-6.209,3.878-9.491a12.087,12.087,0,0,0-3.062-8.256A10.333,10.333,0,0,0,29.019.5,9.641,9.641,0,0,0,23,2.58a12.473,12.473,0,0,0-2.459,2.568l-.405.56-.405-.56A12.464,12.464,0,0,0,17.27,2.579,9.639,9.639,0,0,0,11.249.5Z" transform="translate(86.482 224.297)"/></g></svg>