<svg xmlns="http://www.w3.org/2000/svg" xmlns:xlink="http://www.w3.org/1999/xlink" width="18.153" height="23.044" viewBox="0 0 18.153 23.044"><defs><style>.a{fill:#7a8fa6;}.b{clip-path:url(#a);}</style><clipPath id="a"><rect class="a" width="18.153" height="23.044"/></clipPath></defs><g class="b" transform="translate(0 0)"><path class="a" d="M11.1,10.882a5.34,5.34,0,0,0,5.247-5.438A5.342,5.342,0,0,0,11.1,0,5.351,5.351,0,0,0,5.845,5.444,5.35,5.35,0,0,0,11.1,10.882" transform="translate(-2.022 0)"/><path class="a" d="M9.077,17.932C4.066,17.932,0,21.816,0,24.827S4.066,28.82,9.077,28.82s9.076-.989,9.076-3.993-4.065-6.895-9.076-6.895" transform="translate(0 -5.776)"/></g></svg>